<svg width="83" height="83" viewBox="0 0 83 83" fill="none" xmlns="http://www.w3.org/2000/svg">
<g id="Absa svg" clip-path="url(#clip0_153_407)">
<g id="layer1">
<path id="path4194" d="M79.1187 23.9538C72.5079 9.80392 58.1491 0 41.5 0C24.8509 0 10.492 9.80392 3.88131 23.9538L8.58308 26.1471C14.3679 13.7659 26.9319 5.18723 41.5 5.18723C56.0672 5.18723 68.6321 13.7659 74.416 26.1471L79.1187 23.9538ZM7.36961 29.0731L2.49397 27.2981C0.880223 31.7291 0 36.5116 0 41.5005C0 46.4884 0.880223 51.2718 2.49397 55.7019L7.36961 53.927C5.95781 50.0501 5.18716 45.8654 5.18716 41.5005C5.18716 37.1355 5.95781 32.9499 7.36961 29.0731ZM3.88131 59.0463C10.492 73.1961 24.8509 83 41.5 83C58.1491 83 72.5079 73.1961 79.1187 59.0463L74.416 56.8529C68.6321 69.2341 56.0672 77.8128 41.5 77.8128C26.9319 77.8128 14.3679 69.2341 8.58308 56.8529L3.88131 59.0463ZM75.6295 29.0731C77.0413 32.9499 77.8119 37.1355 77.8119 41.5005C77.8119 45.8654 77.0413 50.0501 75.6295 53.927L80.5051 55.7019C82.1189 51.2718 83 46.4884 83 41.5005C83 36.5116 82.1189 31.7291 80.5051 27.2981L75.6295 29.0731Z" fill="#090909"/>
<path id="path4198" d="M34.2375 33.2001C33.2024 33.2001 32.0886 33.3839 31.125 33.5895V24.9004L26.7864 25.3713V48.7002C28.5785 49.2662 30.905 49.8005 33.1997 49.8005C38.4186 49.8005 41.4994 48.04 41.4994 41.4998C41.4994 34.9606 38.4186 33.2001 34.2375 33.2001ZM33.5457 46.0903C32.7596 46.0903 32.0677 45.9961 31.125 45.776V37.23C31.9056 37.0507 32.679 36.9103 33.5457 36.9103C35.9038 36.9103 37.0358 37.9789 37.0358 41.4998C37.0358 45.0217 35.9038 46.0903 33.5457 46.0903Z" fill="#090909"/>
<path id="path4202" d="M51.0148 39.5823C49.1601 39.5506 47.9965 39.5198 47.9965 38.5137C47.9965 37.1934 48.7825 36.9099 51.1723 36.9099C52.6185 36.9099 54.6615 37.1934 55.9502 37.5076L55.6052 33.9233C53.9389 33.4198 52.0833 33.1997 50.8572 33.1997C45.6383 33.1997 43.627 35.086 43.627 38.6387C43.627 42.0663 45.7334 42.9466 49.286 43.0091C51.5808 43.0407 52.7752 42.9774 52.7752 44.487C52.7752 45.8073 51.7374 46.0899 49.5061 46.0899C47.0221 46.0899 45.2616 45.7131 43.9721 45.3047L44.318 48.8881C45.9843 49.4858 47.5564 49.8001 49.8511 49.8001C55.4159 49.8001 57.1455 47.9137 57.1455 44.5187C57.1455 40.2425 54.3473 39.6448 51.0148 39.5823Z" fill="#090909"/>
<path id="path4206" d="M16.8199 33.2002C15.4362 33.2002 13.5815 33.4202 11.9153 33.9238L11.5693 37.5072C12.9531 37.1929 14.9961 36.9104 16.3481 36.9104C18.612 36.9104 19.5239 37.0988 19.5239 38.9226V39.4252L16.5057 39.5828C13.1731 39.7712 10.3749 40.3371 10.3749 44.5183C10.3749 47.9142 12.1045 49.8006 17.3225 49.8006C19.744 49.8006 22.0704 49.2663 23.8617 48.7003V38.6392C23.8617 35.0865 21.8812 33.2002 16.8199 33.2002ZM19.5239 45.9645C18.958 46.0587 18.2036 46.1845 17.4176 46.1845C15.5312 46.1845 14.7452 45.5878 14.7452 44.2982C14.7452 42.9462 15.4996 42.7261 17.0716 42.6319L19.5239 42.4752V45.9645Z" fill="#090909"/>
<path id="path4210" d="M65.5824 33.2002C64.1996 33.2002 62.3441 33.4202 60.6778 33.9238L60.3319 37.5072C61.7156 37.1929 63.7586 36.9104 65.1106 36.9104C67.3746 36.9104 68.2865 37.0988 68.2865 38.9226V39.4252L65.2682 39.5828C61.9357 39.7712 59.1374 40.243 59.1374 44.5183C59.1374 47.9142 60.8671 49.8006 66.085 49.8006C68.5065 49.8006 70.833 49.2663 72.6242 48.7003V38.6392C72.6242 35.0865 70.6437 33.2002 65.5824 33.2002ZM68.2865 45.9645C67.7205 46.0587 66.9662 46.1845 66.1801 46.1845C64.2938 46.1845 63.5078 45.5878 63.5078 44.2982C63.5078 42.9462 64.2621 42.7261 65.8342 42.6319L68.2865 42.4752V45.9645Z" fill="#090909"/>
</g>
</g>
<defs>
<clipPath id="clip0_153_407">
<rect width="83" height="83" fill="white"/>
</clipPath>
</defs>
</svg>
