<svg width="53" height="53" viewBox="0 0 53 53" fill="none" xmlns="http://www.w3.org/2000/svg">
<g id="Absa svg" clip-path="url(#clip0_112_1611)">
<g id="layer1">
<path id="path4194" d="M50.5216 15.2958C46.3003 6.26034 37.1313 0 26.5 0C15.8687 0 6.69974 6.26034 2.47843 15.2958L5.48076 16.6963C9.1747 8.79026 17.1975 3.31233 26.5 3.31233C35.8019 3.31233 43.8253 8.79026 47.5187 16.6963L50.5216 15.2958ZM4.70589 18.5647L1.59253 17.4313C0.56207 20.2608 0 23.3146 0 26.5003C0 29.6854 0.56207 32.7398 1.59253 35.5687L4.70589 34.4353C3.80438 31.9597 3.31228 29.2875 3.31228 26.5003C3.31228 23.713 3.80438 21.0403 4.70589 18.5647ZM2.47843 37.7042C6.69974 46.7397 15.8687 53 26.5 53C37.1313 53 46.3003 46.7397 50.5216 37.7042L47.5187 36.3037C43.8253 44.2097 35.8019 49.6877 26.5 49.6877C17.1975 49.6877 9.1747 44.2097 5.48076 36.3037L2.47843 37.7042ZM48.2935 18.5647C49.195 21.0403 49.6871 23.713 49.6871 26.5003C49.6871 29.2875 49.195 31.9597 48.2935 34.4353L51.4069 35.5687C52.4373 32.7398 53 29.6854 53 26.5003C53 23.3146 52.4373 20.2608 51.4069 17.4313L48.2935 18.5647Z" fill="#D0021B"/>
<path id="path4198" d="M21.8626 21.2001C21.2016 21.2001 20.4903 21.3175 19.8751 21.4487V15.9003L17.1046 16.201V31.0977C18.249 31.4591 19.7345 31.8003 21.1999 31.8003C24.5324 31.8003 26.4996 30.6762 26.4996 26.4999C26.4996 22.3242 24.5324 21.2001 21.8626 21.2001ZM21.4208 29.4312C20.9188 29.4312 20.477 29.371 19.8751 29.2305V23.7734C20.3735 23.6589 20.8674 23.5693 21.4208 23.5693C22.9266 23.5693 23.6494 24.2516 23.6494 26.4999C23.6494 28.7488 22.9266 29.4312 21.4208 29.4312Z" fill="#D0021B"/>
<path id="path4202" d="M32.5757 25.2755C31.3914 25.2552 30.6483 25.2356 30.6483 24.5931C30.6483 23.75 31.1503 23.569 32.6763 23.569C33.5998 23.569 34.9043 23.75 35.7272 23.9506L35.5069 21.6619C34.4429 21.3404 33.258 21.1998 32.4751 21.1998C29.1425 21.1998 27.8582 22.4044 27.8582 24.6729C27.8582 26.8617 29.2033 27.4237 31.4718 27.4636C32.9371 27.4839 33.6998 27.4434 33.6998 28.4074C33.6998 29.2505 33.0371 29.4309 31.6123 29.4309C30.0261 29.4309 28.902 29.1903 28.0785 28.9295L28.2994 31.2177C29.3634 31.5994 30.3673 31.8001 31.8326 31.8001C35.386 31.8001 36.4905 30.5955 36.4905 28.4276C36.4905 25.697 34.7037 25.3154 32.5757 25.2755Z" fill="#D0021B"/>
<path id="path4206" d="M10.7404 21.2001C9.85684 21.2001 8.67256 21.3406 7.60856 21.6621L7.38767 23.9503C8.27125 23.7497 9.57581 23.5692 10.4392 23.5692C11.8848 23.5692 12.4671 23.6895 12.4671 24.8542V25.1751L10.5398 25.2757C8.41177 25.396 6.62494 25.7574 6.62494 28.4273C6.62494 30.5958 7.72942 31.8003 11.0614 31.8003C12.6076 31.8003 14.0932 31.4591 15.237 31.0977V24.6731C15.237 22.4046 13.9723 21.2001 10.7404 21.2001ZM12.4671 29.3508C12.1057 29.4109 11.624 29.4913 11.1221 29.4913C9.91756 29.4913 9.41563 29.1102 9.41563 28.2868C9.41563 27.4234 9.89732 27.2829 10.9012 27.2227L12.4671 27.1227V29.3508Z" fill="#D0021B"/>
<path id="path4210" d="M41.8779 21.2001C40.9949 21.2001 39.8101 21.3406 38.7461 21.6621L38.5252 23.9503C39.4088 23.7497 40.7133 23.5692 41.5767 23.5692C43.0223 23.5692 43.6046 23.6895 43.6046 24.8542V25.1751L41.6773 25.2757C39.5493 25.396 37.7625 25.6973 37.7625 28.4273C37.7625 30.5958 38.8669 31.8003 42.1989 31.8003C43.7451 31.8003 45.2307 31.4591 46.3745 31.0977V24.6731C46.3745 22.4046 45.1098 21.2001 41.8779 21.2001ZM43.6046 29.3508C43.2432 29.4109 42.7615 29.4913 42.2596 29.4913C41.0551 29.4913 40.5531 29.1102 40.5531 28.2868C40.5531 27.4234 41.0348 27.2829 42.0387 27.2227L43.6046 27.1227V29.3508Z" fill="#D0021B"/>
</g>
</g>
<defs>
<clipPath id="clip0_112_1611">
<rect width="53" height="53" fill="white"/>
</clipPath>
</defs>
</svg>
