<svg width="588" height="441" viewBox="0 0 588 441" fill="none" xmlns="http://www.w3.org/2000/svg">
<path opacity="0.58" d="M166.451 217.737C166.451 217.737 133.999 208.935 126.928 178.669C126.928 178.669 177.234 168.502 178.657 220.407L166.451 217.737Z" fill="#D0021B"/>
<path opacity="0.73" d="M170.441 214.495C170.441 214.495 147.76 178.639 167.712 145.116C167.712 145.116 205.959 169.411 188.97 214.568L170.441 214.495Z" fill="#D0021B"/>
<path d="M176.28 214.495C176.28 214.495 188.266 176.63 224.489 169.456C224.489 169.456 231.281 194.044 201.015 214.598L176.28 214.495Z" fill="#D0021B"/>
<path d="M152.733 213.703L159.321 258.713L200.766 258.889L206.869 213.923L152.733 213.703Z" fill="#24285B"/>
<path d="M363.231 152.877C363.231 152.877 388.494 200.704 394.465 251.729C400.436 302.755 384.767 337.994 298.386 332.169C212.004 326.345 191.098 290.9 206.913 243.836C222.728 196.772 291.828 140.128 291.828 140.128L363.231 152.877Z" fill="#24285B"/>
<path d="M363.23 152.877C363.23 152.877 407.522 125.003 395.873 104.874C384.224 84.746 355.91 89.5287 341.224 82.3107C326.539 75.0926 247.8 62.329 291.827 140.158L363.23 152.877Z" fill="#24285B"/>
<path d="M357.172 141.552C357.172 141.552 312.616 133.116 275.147 134.421" stroke="#FFD200" stroke-width="4.40125" stroke-linecap="round" stroke-linejoin="round"/>
<path d="M289.568 139.85C289.568 139.85 271.288 87.0348 242.475 111.77C213.661 136.505 287.793 139.85 287.793 139.85C287.793 139.85 214.864 157.381 249.165 186.43C283.465 215.478 289.568 139.85 289.568 139.85Z" stroke="#FFD200" stroke-width="4.40125" stroke-linecap="round" stroke-linejoin="round"/>
<path d="M395.932 103.906C395.932 103.906 404.353 119.927 386.411 122.098C368.468 124.27 353.739 107.78 339.464 111.447C325.189 115.115 283.715 121.805 278.448 102.102C273.181 82.399 298.488 73.0683 315.316 75.489C332.143 77.9097 391.325 85.1278 395.932 103.906Z" fill="#D0021B"/>
<path opacity="0.45" d="M294.087 365.619C408.348 365.619 500.975 352.147 500.975 335.529C500.975 318.911 408.348 305.439 294.087 305.439C179.826 305.439 87.199 318.911 87.199 335.529C87.199 352.147 179.826 365.619 294.087 365.619Z" fill="#E6E6E6"/>
<path d="M354.648 293.321V311.293C354.648 319.435 331.938 325.964 303.946 325.964C275.954 325.964 253.273 319.288 253.287 311.146V293.174L354.648 293.321Z" fill="#FFD200"/>
<path d="M354.619 314.99V332.947C354.619 341.089 331.908 347.618 303.916 347.618C275.924 347.618 253.243 340.928 253.258 332.785V314.814L354.619 314.99Z" fill="#FFD200"/>
<path opacity="0.08" d="M354.619 314.99V332.947C354.619 341.089 331.908 347.618 303.916 347.618C275.924 347.618 253.243 340.928 253.258 332.785V314.814L354.619 314.99Z" fill="black"/>
<path d="M353.665 314.408C353.679 306.338 331.207 299.757 303.472 299.709C275.738 299.66 253.243 306.163 253.229 314.233C253.215 322.303 275.687 328.884 303.421 328.933C331.156 328.981 353.651 322.478 353.665 314.408Z" fill="#FFD200"/>
<path opacity="0.08" d="M354.648 293.321V311.293C354.648 319.435 331.938 325.964 303.946 325.964C275.954 325.964 253.273 319.288 253.287 311.146V293.174L354.648 293.321Z" fill="black"/>
<path d="M350.995 271.843V289.815C350.995 297.957 328.285 304.486 300.293 304.486C272.301 304.486 249.62 297.81 249.634 289.668V271.696L350.995 271.843Z" fill="#FFD200"/>
<path d="M354.721 250.204V268.175C354.721 276.318 331.996 282.846 304.004 282.846C276.012 282.846 253.346 276.156 253.346 268.014V250.042L354.721 250.204Z" fill="#FFD200"/>
<path d="M353.694 292.952C353.708 284.882 331.236 278.3 303.502 278.252C275.767 278.203 253.272 284.706 253.258 292.776C253.244 300.846 275.716 307.428 303.451 307.476C331.185 307.524 353.68 301.022 353.694 292.952Z" fill="#FFD200"/>
<path opacity="0.08" d="M350.995 271.843V289.815C350.995 297.957 328.285 304.486 300.293 304.486C272.301 304.486 249.62 297.81 249.634 289.668V271.696L350.995 271.843Z" fill="black"/>
<path d="M350.094 271.671C350.108 263.601 327.636 257.02 299.901 256.971C272.166 256.923 249.671 263.426 249.657 271.496C249.643 279.566 272.115 286.147 299.85 286.196C327.585 286.244 350.08 279.741 350.094 271.671Z" fill="#FFD200"/>
<path opacity="0.08" d="M354.721 250.204V268.175C354.721 276.318 331.996 282.846 304.004 282.846C276.012 282.846 253.346 276.156 253.346 268.014V250.042L354.721 250.204Z" fill="black"/>
<path d="M354.737 250.215C354.751 242.145 332.062 235.564 304.06 235.515C276.058 235.466 253.346 241.968 253.332 250.038C253.318 258.108 276.007 264.69 304.009 264.739C332.011 264.788 354.723 258.285 354.737 250.215Z" fill="#FFD200"/>
<path d="M472.381 289.683V309.797C472.381 318.907 446.957 326.257 415.62 326.199C384.283 326.14 358.903 318.716 358.917 309.606V289.492L472.381 289.683Z" fill="#FFD200"/>
<path d="M472.352 313.919V334.032C472.352 343.143 446.928 350.493 415.605 350.434C384.283 350.376 358.873 342.952 358.888 333.842V313.728L472.352 313.919Z" fill="#FFD200"/>
<path opacity="0.08" d="M472.352 313.919V334.032C472.352 343.143 446.928 350.493 415.605 350.434C384.283 350.376 358.873 342.952 358.888 333.842V313.728L472.352 313.919Z" fill="black"/>
<path d="M471.285 313.258C471.301 304.224 446.15 296.856 415.11 296.802C384.069 296.748 358.893 304.028 358.877 313.062C358.862 322.096 384.012 329.464 415.053 329.518C446.093 329.572 471.269 322.292 471.285 313.258Z" fill="#FFD200"/>
<path opacity="0.08" d="M472.381 289.683V309.797C472.381 318.907 446.957 326.257 415.62 326.199C384.283 326.14 358.903 318.716 358.917 309.606V289.492L472.381 289.683Z" fill="black"/>
<path d="M468.303 265.637V285.751C468.303 294.862 442.864 302.212 411.541 302.153C380.219 302.094 354.824 294.671 354.839 285.56V265.447L468.303 265.637Z" fill="#FFD200"/>
<path d="M472.47 241.401V261.515C472.47 270.625 447.03 277.976 415.708 277.932C384.386 277.888 358.991 270.435 359.005 261.324V241.21L472.47 241.401Z" fill="#FFD200"/>
<path d="M471.329 289.259C471.345 280.225 446.194 272.857 415.154 272.803C384.113 272.749 358.937 280.028 358.921 289.063C358.906 298.097 384.056 305.465 415.097 305.519C446.137 305.573 471.313 298.293 471.329 289.259Z" fill="#FFD200"/>
<path opacity="0.08" d="M468.303 265.637V285.751C468.303 294.862 442.864 302.212 411.541 302.153C380.219 302.094 354.824 294.671 354.839 285.56V265.447L468.303 265.637Z" fill="black"/>
<path d="M467.273 265.436C467.288 256.401 442.138 249.034 411.097 248.98C380.057 248.925 354.881 256.205 354.865 265.239C354.849 274.274 380 281.641 411.04 281.696C442.081 281.75 467.257 274.47 467.273 265.436Z" fill="#FFD200"/>
<path opacity="0.08" d="M472.47 241.401V261.515C472.47 270.625 447.03 277.976 415.708 277.932C384.386 277.888 358.991 270.435 359.005 261.324V241.21L472.47 241.401Z" fill="black"/>
<path d="M472.504 241.423C472.52 232.388 447.126 225.02 415.786 224.966C384.445 224.911 359.026 232.19 359.01 241.225C358.995 250.259 384.388 257.627 415.729 257.682C447.069 257.736 472.488 250.457 472.504 241.423Z" fill="#FFD200"/>
<path d="M373.06 215.771V235.885C373.06 245.01 398.485 252.346 429.821 252.302C461.158 252.258 486.539 244.82 486.524 235.694V215.581L373.06 215.771Z" fill="#FFD200"/>
<path d="M368.908 191.55V211.663C368.908 220.774 394.333 228.124 425.67 228.065C457.007 228.007 482.387 220.583 482.372 211.473V191.344L368.908 191.55Z" fill="#FFD200"/>
<path opacity="0.08" d="M373.06 215.771V235.885C373.06 245.01 398.485 252.346 429.821 252.302C461.158 252.258 486.539 244.82 486.524 235.694V215.581L373.06 215.771Z" fill="black"/>
<path d="M430.342 231.775C461.383 231.721 486.533 224.353 486.518 215.319C486.502 206.285 461.326 199.005 430.285 199.059C399.245 199.113 374.094 206.481 374.11 215.515C374.126 224.549 399.302 231.829 430.342 231.775Z" fill="#FFD200"/>
<path opacity="0.08" d="M368.908 191.55V211.663C368.908 220.774 394.333 228.124 425.67 228.065C457.007 228.007 482.387 220.583 482.372 211.473V191.344L368.908 191.55Z" fill="black"/>
<path d="M425.679 207.782C457.019 207.727 482.413 200.359 482.397 191.325C482.381 182.29 456.962 175.011 425.622 175.066C394.282 175.12 368.888 182.488 368.904 191.523C368.92 200.557 394.339 207.836 425.679 207.782Z" fill="#FFD200"/>
<path d="M244.206 288.172V308.286C244.206 317.396 218.782 324.746 187.445 324.702C156.108 324.658 130.625 317.191 130.639 308.095V287.981L244.206 288.172Z" fill="#FFD200"/>
<path d="M244.104 312.408V332.522C244.104 341.647 218.679 348.982 187.357 348.938C156.035 348.894 130.639 341.456 130.654 332.331V312.217L244.104 312.408Z" fill="#FFD200"/>
<path opacity="0.08" d="M244.104 312.408V332.522C244.104 341.647 218.679 348.982 187.357 348.938C156.035 348.894 130.639 341.456 130.654 332.331V312.217L244.104 312.408Z" fill="black"/>
<path d="M243.019 311.759C243.035 302.724 217.885 295.357 186.844 295.303C155.804 295.248 130.628 302.528 130.612 311.562C130.596 320.597 155.747 327.964 186.787 328.019C217.828 328.073 243.004 320.793 243.019 311.759Z" fill="#FFD200"/>
<path opacity="0.08" d="M244.206 288.172V308.286C244.206 317.396 218.782 324.746 187.445 324.702C156.108 324.658 130.625 317.191 130.639 308.095V287.981L244.206 288.172Z" fill="black"/>
<path d="M240.054 264.126V284.24C240.054 293.365 214.63 300.701 183.293 300.657C151.956 300.613 126.576 293.175 126.59 284.049V263.936L240.054 264.126Z" fill="#FFD200"/>
<path d="M244.206 239.905V259.974C244.206 269.085 218.782 276.435 187.445 276.376C156.108 276.318 130.727 268.894 130.742 259.784V239.67L244.206 239.905Z" fill="#FFD200"/>
<path d="M243.063 287.759C243.079 278.725 217.929 271.357 186.888 271.303C155.848 271.249 130.672 278.529 130.656 287.563C130.64 296.597 155.791 303.965 186.831 304.019C217.872 304.073 243.048 296.793 243.063 287.759Z" fill="#FFD200"/>
<path opacity="0.08" d="M240.054 264.126V284.24C240.054 293.365 214.63 300.701 183.293 300.657C151.956 300.613 126.576 293.175 126.59 284.049V263.936L240.054 264.126Z" fill="black"/>
<path d="M239.022 263.922C239.038 254.887 213.887 247.52 182.847 247.466C151.806 247.412 126.63 254.691 126.614 263.726C126.598 272.76 151.749 280.127 182.79 280.182C213.83 280.236 239.006 272.956 239.022 263.922Z" fill="#FFD200"/>
<path opacity="0.08" d="M244.206 239.905V259.974C244.206 269.085 218.782 276.435 187.445 276.376C156.108 276.318 130.727 268.894 130.742 259.784V239.67L244.206 239.905Z" fill="black"/>
<path opacity="0.08" d="M241.976 352.709C265.238 352.709 284.096 333.851 284.096 310.589C284.096 287.326 265.238 268.469 241.976 268.469C218.714 268.469 199.856 287.326 199.856 310.589C199.856 333.851 218.714 352.709 241.976 352.709Z" fill="black"/>
<path opacity="0.08" d="M213.969 268.425C213.969 268.425 169.869 281.878 176.955 348.645C176.955 348.645 205.695 349.613 219.339 346.107C231.545 342.982 213.969 268.425 213.969 268.425Z" fill="black"/>
<path d="M244.224 239.923C244.239 230.889 218.846 223.521 187.505 223.466C156.165 223.412 130.746 230.691 130.73 239.725C130.714 248.76 156.108 256.128 187.448 256.182C218.789 256.237 244.208 248.958 244.224 239.923Z" fill="#FFD200"/>
<path d="M241.976 352.709C265.238 352.709 284.096 333.851 284.096 310.589C284.096 287.326 265.238 268.469 241.976 268.469C218.714 268.469 199.856 287.326 199.856 310.589C199.856 333.851 218.714 352.709 241.976 352.709Z" fill="#FFD200"/>
<g opacity="0.08">
<path d="M244.03 340.018C267.292 340.018 286.15 321.16 286.15 297.898C286.15 274.636 267.292 255.778 244.03 255.778C220.768 255.778 201.91 274.636 201.91 297.898C201.91 321.16 220.768 340.018 244.03 340.018Z" fill="black"/>
</g>
<path opacity="0.08" d="M241.976 352.709C265.238 352.709 284.096 333.851 284.096 310.589C284.096 287.326 265.238 268.469 241.976 268.469C218.714 268.469 199.856 287.326 199.856 310.589C199.856 333.851 218.714 352.709 241.976 352.709Z" fill="black"/>
<path d="M244.03 340.018C267.292 340.018 286.15 321.16 286.15 297.898C286.15 274.636 267.292 255.778 244.03 255.778C220.768 255.778 201.91 274.636 201.91 297.898C201.91 321.16 220.768 340.018 244.03 340.018Z" fill="#FFD200"/>
<path d="M245.394 279.046C246.583 279.046 246.95 279.457 246.95 280.66V283.184C249.043 283.406 251.036 284.194 252.716 285.463C254.396 286.732 255.699 288.434 256.486 290.387C257.102 291.634 256.838 292.309 255.444 292.925L252.906 294.069C251.718 294.641 251.145 294.377 250.471 293.13C249.939 291.842 249.008 290.759 247.814 290.04C246.62 289.322 245.226 289.006 243.839 289.14C239.438 289.14 237.428 290.446 237.428 293.394C237.53 294.295 237.941 295.132 238.591 295.763C239.241 296.395 240.09 296.781 240.993 296.857C242.22 297.139 243.465 297.33 244.72 297.429C247.071 297.545 249.393 298 251.615 298.779C252.725 299.139 253.76 299.701 254.666 300.436C255.584 301.4 256.299 302.538 256.771 303.783C257.242 305.028 257.459 306.354 257.41 307.684C257.41 313.332 253.625 317.161 246.95 318.144V320.844C246.95 322.032 246.583 322.443 245.394 322.443H242.548C241.36 322.443 240.949 322.032 240.949 320.844V318.203C238.626 318.05 236.4 317.21 234.556 315.788C232.712 314.367 231.332 312.43 230.592 310.222C230.479 309.991 230.421 309.737 230.422 309.48C230.423 309.223 230.483 308.97 230.598 308.74C230.713 308.51 230.88 308.31 231.085 308.155C231.29 307.999 231.527 307.894 231.78 307.845L234.318 306.906C235.609 306.437 236.181 306.76 236.753 308.051C237.883 310.985 240.216 312.452 243.737 312.452C248.505 312.452 250.881 310.985 250.881 307.904C250.925 307.196 250.729 306.493 250.324 305.91C249.92 305.327 249.33 304.898 248.651 304.691C247.004 304.108 245.278 303.776 243.531 303.708C241.156 303.582 238.815 303.087 236.592 302.241C234.761 301.664 233.185 300.473 232.13 298.87C231.074 297.266 230.604 295.348 230.797 293.438C230.797 287.849 234.318 284.108 240.949 283.169V280.646C240.949 279.443 241.36 279.032 242.548 279.032L245.394 279.046Z" fill="white"/>
<path d="M193.313 95.8518C193.313 95.8518 189.924 108.703 179.801 114.807C179.801 114.807 190.174 113.207 199.035 125.942C199.035 125.942 201.749 114.454 210.155 106.958C210.155 106.958 197.568 106.811 193.313 95.8518Z" fill="#E6E6E6"/>
<path d="M469.198 135.507C469.198 135.507 458.605 143.561 446.883 142.138C446.883 142.138 456.038 147.258 455.187 162.677C455.187 162.677 464.4 155.342 475.623 154.564C475.623 154.638 465.735 146.774 469.198 135.507Z" fill="#E6E6E6"/>
<path d="M431.655 100.341C431.655 100.341 423.454 106.576 414.373 105.476C414.373 105.476 421.459 109.437 420.799 121.438C425.417 117.953 430.892 115.783 436.643 115.159C436.643 115.159 429.059 109.07 431.655 100.341Z" fill="#E6E6E6"/>
</svg>
