<svg width="51" height="39" viewBox="0 0 51 39" fill="none" xmlns="http://www.w3.org/2000/svg">
<path d="M18.7367 3.43225H32.2511V26.896H18.7367V3.43225Z" fill="#FF5F00"/>
<path d="M9.59861 38.7062V36.219C9.59861 35.2653 8.99784 34.6437 7.96809 34.6437C7.45331 34.6437 6.89553 34.8095 6.50935 35.3484C6.20916 34.8924 5.78018 34.6437 5.13661 34.6437C4.70743 34.6437 4.27864 34.7679 3.93526 35.224V34.7266H3.0343V38.7062H3.93526V36.509C3.93526 35.8045 4.32144 35.4727 4.92222 35.4727C5.52259 35.4727 5.82318 35.8458 5.82318 36.509V38.7062H6.72414V36.509C6.72414 35.8045 7.15292 35.4727 7.7107 35.4727C8.31147 35.4727 8.61166 35.8458 8.61166 36.509V38.7062H9.59861ZM22.9412 34.7266H21.4827V33.5244H20.5817V34.7266H19.7666V35.514H20.5815V37.3382C20.5815 38.2503 20.9677 38.7891 21.9975 38.7891C22.3837 38.7891 22.8124 38.6649 23.113 38.4991L22.8554 37.7528C22.598 37.9186 22.2979 37.9601 22.0833 37.9601C21.6543 37.9601 21.4827 37.7114 21.4827 37.2967V35.514H22.9412V34.7266ZM30.5781 34.6435C30.0633 34.6435 29.7201 34.8924 29.5055 35.224V34.7266H28.6046V38.7062H29.5055V36.4677C29.5055 35.8045 29.8057 35.4313 30.3635 35.4313C30.5351 35.4313 30.7497 35.4729 30.9213 35.5142L31.1787 34.6852C31.0071 34.6437 30.7497 34.6437 30.5781 34.6437V34.6435ZM19.0372 35.0582C18.608 34.7679 18.0074 34.6437 17.3639 34.6437C16.3343 34.6437 15.6479 35.1411 15.6479 35.9287C15.6479 36.5921 16.1627 36.9651 17.0637 37.0895L17.4927 37.1311C17.9646 37.2138 18.222 37.3382 18.222 37.5456C18.222 37.8357 17.8789 38.043 17.2781 38.043C16.6775 38.043 16.2055 37.8357 15.9051 37.6285L15.4762 38.2917C15.9481 38.6233 16.5917 38.7891 17.2351 38.7891C18.4364 38.7891 19.123 38.2503 19.123 37.504C19.123 36.7993 18.5652 36.4261 17.7071 36.3019L17.2781 36.2603C16.8919 36.2188 16.5917 36.1361 16.5917 35.8874C16.5917 35.5971 16.8919 35.4313 17.3639 35.4313C17.8789 35.4313 18.3936 35.6385 18.651 35.7629L19.0372 35.0582ZM42.9772 34.6437C42.4622 34.6437 42.119 34.8924 41.9044 35.224V34.7266H41.0034V38.7062H41.9044V36.4677C41.9044 35.8045 42.2048 35.4313 42.7624 35.4313C42.9342 35.4313 43.1487 35.4729 43.3203 35.5142L43.5777 34.6852C43.4061 34.6437 43.1487 34.6437 42.9772 34.6437ZM31.4791 36.7164C31.4791 37.9186 32.337 38.7891 33.6672 38.7891C34.2677 38.7891 34.6967 38.6649 35.1257 38.3332L34.6967 37.6285C34.3535 37.8772 34.0103 38.0015 33.6242 38.0015C32.8948 38.0015 32.38 37.504 32.38 36.7164C32.38 35.9703 32.8948 35.4727 33.6242 35.4313C34.0103 35.4313 34.3535 35.5556 34.6967 35.8045L35.1257 35.0997C34.6967 34.7679 34.2677 34.6437 33.6672 34.6437C32.337 34.6437 31.4791 35.5142 31.4791 36.7164ZM39.8023 36.7164V34.7266H38.9013V35.224C38.6009 34.851 38.172 34.6437 37.6142 34.6437C36.4558 34.6437 35.5549 35.5142 35.5549 36.7164C35.5549 37.9186 36.4558 38.7891 37.6142 38.7891C38.2148 38.7891 38.6439 38.582 38.9013 38.2088V38.7062H39.8023V36.7164ZM36.4986 36.7164C36.4986 36.0116 36.9706 35.4313 37.7428 35.4313C38.4722 35.4313 38.9871 35.9703 38.9871 36.7164C38.9871 37.4211 38.4722 38.0015 37.7428 38.0015C36.9706 37.9599 36.4986 37.4211 36.4986 36.7164ZM25.7301 34.6437C24.5288 34.6437 23.6706 35.4727 23.6706 36.7164C23.6706 37.9601 24.5286 38.7891 25.7729 38.7891C26.3735 38.7891 26.9743 38.6233 27.4462 38.2503L27.0171 37.6285C26.6739 37.8772 26.2449 38.043 25.8159 38.043C25.2581 38.043 24.7004 37.7943 24.5716 37.0894H27.6178V36.7579C27.6608 35.4727 26.8885 34.6437 25.7299 34.6437H25.7301ZM25.7301 35.3898C26.2877 35.3898 26.6741 35.7216 26.7597 36.3434H24.6146C24.7004 35.8045 25.0865 35.3898 25.7301 35.3898ZM48.0825 36.7164V33.1512H47.1816V35.224C46.8812 34.851 46.4522 34.6437 45.8944 34.6437C44.7361 34.6437 43.8351 35.5142 43.8351 36.7164C43.8351 37.9186 44.7361 38.7891 45.8944 38.7891C46.4952 38.7891 46.9242 38.582 47.1816 38.2088V38.7062H48.0825V36.7164ZM44.7791 36.7164C44.7791 36.0116 45.2509 35.4313 46.0232 35.4313C46.7526 35.4313 47.2674 35.9703 47.2674 36.7164C47.2674 37.4211 46.7526 38.0015 46.0232 38.0015C45.2509 37.9599 44.7791 37.4211 44.7791 36.7164ZM14.661 36.7164V34.7266H13.76V35.224C13.4596 34.851 13.0307 34.6437 12.4729 34.6437C11.3145 34.6437 10.4136 35.5142 10.4136 36.7164C10.4136 37.9186 11.3145 38.7891 12.4729 38.7891C13.0737 38.7891 13.5026 38.582 13.76 38.2088V38.7062H14.661V36.7164ZM11.3145 36.7164C11.3145 36.0116 11.7865 35.4313 12.5587 35.4313C13.2881 35.4313 13.803 35.9703 13.803 36.7164C13.803 37.4211 13.2881 38.0015 12.5587 38.0015C11.7865 37.9599 11.3145 37.4211 11.3145 36.7164Z" fill="white"/>
<path d="M19.5945 15.1642C19.5945 10.3969 21.9112 6.16835 25.4721 3.43223C22.8552 1.4424 19.5517 0.240234 15.9479 0.240234C7.40986 0.240234 0.502563 6.91447 0.502563 15.1642C0.502563 23.4138 7.40986 30.0882 15.9477 30.0882C19.5515 30.0882 22.855 28.886 25.4721 26.896C21.9112 24.2014 19.5945 19.9315 19.5945 15.1642Z" fill="#EB001B"/>
<path d="M50.4845 15.1642C50.4845 23.4138 43.5772 30.0882 35.0394 30.0882C31.4356 30.0882 28.1321 28.886 25.515 26.896C29.1189 24.1601 31.3928 19.9315 31.3928 15.1642C31.3928 10.3969 29.0759 6.16835 25.515 3.43223C28.1319 1.4424 31.4356 0.240234 35.0394 0.240234C43.5772 0.240234 50.4847 6.95601 50.4847 15.1642H50.4845Z" fill="#F79E1B"/>
</svg>
