<svg width="26" height="27" viewBox="0 0 26 27" fill="none" xmlns="http://www.w3.org/2000/svg">
<g id="bar-line-chart">
<path id="Icon" d="M21.4648 21.9219V14.4092M12.8789 21.9219V11.1895M4.29297 21.9219L4.29297 17.6289M14.3886 5.85276L19.9356 7.93288M11.5897 6.25353L5.5811 10.76M22.6032 7.368C23.2319 7.99669 23.2319 9.016 22.6032 9.64469C21.9745 10.2734 20.9552 10.2734 20.3265 9.64469C19.6978 9.016 19.6978 7.99669 20.3265 7.368C20.9552 6.73931 21.9745 6.73931 22.6032 7.368ZM5.43131 10.5877C6.06 11.2164 6.06 12.2357 5.43131 12.8644C4.80262 13.4931 3.78331 13.4931 3.15462 12.8644C2.52593 12.2357 2.52593 11.2164 3.15462 10.5877C3.78331 9.95904 4.80262 9.95904 5.43131 10.5877ZM14.0173 4.14828C14.6459 4.77697 14.6459 5.79628 14.0173 6.42497C13.3886 7.05366 12.3693 7.05366 11.7406 6.42497C11.1119 5.79628 11.1119 4.77697 11.7406 4.14828C12.3693 3.51959 13.3886 3.51959 14.0173 4.14828Z" stroke="#090909" stroke-width="2.14648" stroke-linecap="round" stroke-linejoin="round"/>
</g>
</svg>
