<svg width="29" height="29" viewBox="0 0 29 29" fill="none" xmlns="http://www.w3.org/2000/svg">
<rect width="29" height="29" rx="4" fill="white"/>
<path d="M21 10C21 8.4087 20.3679 6.88258 19.2426 5.75736C18.1174 4.63214 16.5913 4 15 4C13.4087 4 11.8826 4.63214 10.7574 5.75736C9.63214 6.88258 9 8.4087 9 10C9 17 6 19 6 19H24C24 19 21 17 21 10Z" stroke="black" stroke-width="2" stroke-linecap="round" stroke-linejoin="round"/>
<path d="M16.46 23C16.2842 23.3031 16.0318 23.5547 15.7282 23.7295C15.4246 23.9044 15.0804 23.9965 14.73 23.9965C14.3796 23.9965 14.0354 23.9044 13.7318 23.7295C13.4282 23.5547 13.1758 23.3031 13 23" stroke="black" stroke-width="2" stroke-linecap="round" stroke-linejoin="round"/>
</svg>
