<svg width="26" height="26" viewBox="0 0 26 26" fill="none" xmlns="http://www.w3.org/2000/svg">
<g id="element-3">
<path id="Vector" d="M23.6113 9.14402V4.2715C23.6113 2.75823 22.9245 2.14648 21.218 2.14648H16.8821C15.1756 2.14648 14.4888 2.75823 14.4888 4.2715V9.13329C14.4888 10.6573 15.1756 11.2583 16.8821 11.2583H21.218C22.9245 11.269 23.6113 10.6573 23.6113 9.14402Z" fill="white"/>
<path id="Vector_2" d="M23.6113 21.218V16.8821C23.6113 15.1756 22.9245 14.4888 21.218 14.4888H16.8821C15.1756 14.4888 14.4888 15.1756 14.4888 16.8821V21.218C14.4888 22.9245 15.1756 23.6113 16.8821 23.6113H21.218C22.9245 23.6113 23.6113 22.9245 23.6113 21.218Z" fill="white"/>
<path id="Vector_3" d="M11.269 9.14402V4.2715C11.269 2.75823 10.5822 2.14648 8.87571 2.14648H4.53981C2.83336 2.14648 2.14648 2.75823 2.14648 4.2715V9.13329C2.14648 10.6573 2.83336 11.2583 4.53981 11.2583H8.87571C10.5822 11.269 11.269 10.6573 11.269 9.14402Z" fill="white"/>
<path id="Vector_4" d="M11.269 21.218V16.8821C11.269 15.1756 10.5822 14.4888 8.87571 14.4888H4.53981C2.83336 14.4888 2.14648 15.1756 2.14648 16.8821V21.218C2.14648 22.9245 2.83336 23.6113 4.53981 23.6113H8.87571C10.5822 23.6113 11.269 22.9245 11.269 21.218Z" fill="white"/>
</g>
</svg>
