<svg width="27" height="27" viewBox="0 0 27 27" fill="none" xmlns="http://www.w3.org/2000/svg">
<g id="settings-01">
<g id="Icon">
<path d="M13.7354 16.5928C15.5136 16.5928 16.9551 15.1513 16.9551 13.373C16.9551 11.5948 15.5136 10.1533 13.7354 10.1533C11.9571 10.1533 10.5156 11.5948 10.5156 13.373C10.5156 15.1513 11.9571 16.5928 13.7354 16.5928Z" stroke="#090909" stroke-width="2.14648" stroke-linecap="round" stroke-linejoin="round"/>
<path d="M20.9553 16.3001C20.8255 16.5944 20.7867 16.9208 20.8441 17.2373C20.9015 17.5538 21.0524 17.8459 21.2773 18.0758L21.3359 18.1343C21.5173 18.3156 21.6612 18.5308 21.7594 18.7677C21.8576 19.0046 21.9082 19.2585 21.9082 19.5149C21.9082 19.7714 21.8576 20.0253 21.7594 20.2622C21.6612 20.4991 21.5173 20.7143 21.3359 20.8955C21.1546 21.0769 20.9394 21.2209 20.7025 21.3191C20.4656 21.4173 20.2117 21.4678 19.9553 21.4678C19.6988 21.4678 19.4449 21.4173 19.208 21.3191C18.9711 21.2209 18.7559 21.0769 18.5747 20.8955L18.5162 20.837C18.2862 20.612 17.9942 20.4611 17.6777 20.4038C17.3611 20.3464 17.0347 20.3851 16.7404 20.515C16.4519 20.6387 16.2057 20.844 16.0324 21.1058C15.859 21.3676 15.766 21.6743 15.7648 21.9883V22.1541C15.7648 22.6716 15.5592 23.168 15.1932 23.5339C14.8273 23.8999 14.3309 24.1055 13.8134 24.1055C13.2959 24.1055 12.7995 23.8999 12.4336 23.5339C12.0676 23.168 11.8621 22.6716 11.8621 22.1541V22.0663C11.8545 21.7434 11.75 21.4302 11.562 21.1674C11.3741 20.9047 11.1115 20.7045 10.8083 20.593C10.514 20.4632 10.1876 20.4244 9.87111 20.4818C9.5546 20.5392 9.26255 20.6901 9.0326 20.915L8.97406 20.9736C8.79283 21.155 8.57762 21.2989 8.34073 21.3971C8.10384 21.4953 7.84992 21.5459 7.59348 21.5459C7.33704 21.5459 7.08312 21.4953 6.84623 21.3971C6.60934 21.2989 6.39413 21.155 6.2129 20.9736C6.03147 20.7923 5.88754 20.5771 5.78934 20.3402C5.69114 20.1033 5.64059 19.8494 5.64059 19.593C5.64059 19.3365 5.69114 19.0826 5.78934 18.8457C5.88754 18.6088 6.03147 18.3936 6.2129 18.2124L6.27144 18.1539C6.49637 17.9239 6.64726 17.6319 6.70464 17.3153C6.76203 16.9988 6.72329 16.6724 6.59341 16.3781C6.46973 16.0896 6.26437 15.8434 6.00261 15.6701C5.74084 15.4967 5.4341 15.4037 5.12014 15.4025H4.95428C4.43675 15.4025 3.94042 15.1969 3.57447 14.8309C3.20852 14.465 3.00293 13.9686 3.00293 13.4511C3.00293 12.9336 3.20852 12.4372 3.57447 12.0713C3.94042 11.7053 4.43675 11.4998 4.95428 11.4998H5.04209C5.36503 11.4922 5.67823 11.3877 5.94098 11.1997C6.20372 11.0118 6.40385 10.7492 6.51536 10.446C6.64524 10.1517 6.68398 9.82531 6.62659 9.5088C6.5692 9.1923 6.41832 8.90024 6.19339 8.67029L6.13485 8.61175C5.95342 8.43053 5.80949 8.21532 5.71129 7.97842C5.61309 7.74153 5.56254 7.48761 5.56254 7.23117C5.56254 6.97474 5.61309 6.72081 5.71129 6.48392C5.80949 6.24703 5.95342 6.03182 6.13485 5.85059C6.31607 5.66917 6.53129 5.52524 6.76818 5.42704C7.00507 5.32884 7.25899 5.27829 7.51543 5.27829C7.77186 5.27829 8.02579 5.32884 8.26268 5.42704C8.49957 5.52524 8.71478 5.66917 8.896 5.85059L8.95455 5.90914C9.18449 6.13406 9.47655 6.28495 9.79305 6.34234C10.1096 6.39973 10.436 6.36098 10.7303 6.23111H10.8083C11.0969 6.10743 11.343 5.90207 11.5164 5.6403C11.6897 5.37854 11.7827 5.0718 11.784 4.75784V4.59197C11.784 4.07444 11.9896 3.57811 12.3555 3.21216C12.7215 2.84621 13.2178 2.64063 13.7354 2.64062C14.2529 2.64062 14.7492 2.84621 15.1152 3.21216C15.4811 3.57811 15.6867 4.07444 15.6867 4.59197V4.67979C15.688 4.99374 15.781 5.30049 15.9543 5.56225C16.1277 5.82401 16.3738 6.02937 16.6624 6.15305C16.9567 6.28293 17.2831 6.32167 17.5996 6.26429C17.9161 6.2069 18.2082 6.05601 18.4381 5.83108L18.4966 5.77254C18.6779 5.59111 18.8931 5.44718 19.13 5.34898C19.3669 5.25078 19.6208 5.20024 19.8772 5.20024C20.1337 5.20024 20.3876 5.25078 20.6245 5.34898C20.8614 5.44718 21.0766 5.59111 21.2578 5.77254C21.4392 5.95377 21.5832 6.16898 21.6814 6.40587C21.7796 6.64276 21.8301 6.89668 21.8301 7.15312C21.8301 7.40956 21.7796 7.66348 21.6814 7.90037C21.5832 8.13726 21.4392 8.35247 21.2578 8.5337L21.1993 8.59224C20.9743 8.82219 20.8234 9.11424 20.7661 9.43075C20.7087 9.74725 20.7474 10.0737 20.8773 10.368V10.446C21.001 10.7346 21.2063 10.9807 21.4681 11.1541C21.7299 11.3274 22.0366 11.4204 22.3506 11.4217H22.5164C23.034 11.4217 23.5303 11.6273 23.8962 11.9932C24.2622 12.3592 24.4678 12.8555 24.4678 13.373C24.4678 13.8906 24.2622 14.3869 23.8962 14.7529C23.5303 15.1188 23.034 15.3244 22.5164 15.3244H22.4286C22.1147 15.3256 21.8079 15.4187 21.5462 15.592C21.2844 15.7654 21.079 16.0115 20.9553 16.3001Z" stroke="#090909" stroke-width="2.14648" stroke-linecap="round" stroke-linejoin="round"/>
</g>
</g>
</svg>
