<svg width="26" height="27" viewBox="0 0 26 27" fill="none" xmlns="http://www.w3.org/2000/svg">
<g id="wallet-02">
<path id="Icon" d="M17.1719 9.07126V5.31562C17.1719 4.42296 17.1719 3.97663 16.9838 3.70234C16.8195 3.46269 16.5651 3.2999 16.2787 3.25115C15.9508 3.19537 15.5456 3.3824 14.7351 3.75648L5.2149 8.15041C4.49206 8.48403 4.13064 8.65084 3.86593 8.90954C3.63191 9.13825 3.45328 9.41743 3.34369 9.72576C3.21973 10.0745 3.21973 10.4726 3.21973 11.2687V16.584M17.7085 16.0473H17.7192M3.21973 12.5056L3.21973 19.589C3.21973 20.7912 3.21973 21.3922 3.45368 21.8514C3.65947 22.2553 3.98784 22.5837 4.39173 22.7895C4.85089 23.0234 5.45196 23.0234 6.6541 23.0234H19.1037C20.3059 23.0234 20.9069 23.0234 21.3661 22.7895C21.77 22.5837 22.0983 22.2553 22.3041 21.8514C22.5381 21.3922 22.5381 20.7912 22.5381 19.589V12.5056C22.5381 11.3035 22.5381 10.7024 22.3041 10.2433C22.0983 9.83938 21.77 9.51101 21.3661 9.30521C20.9069 9.07126 20.3059 9.07126 19.1037 9.07126L6.6541 9.07126C5.45196 9.07126 4.85089 9.07126 4.39173 9.30521C3.98784 9.511 3.65947 9.83937 3.45368 10.2433C3.21973 10.7024 3.21973 11.3035 3.21973 12.5056ZM18.2451 16.0473C18.2451 16.3437 18.0049 16.584 17.7085 16.584C17.4121 16.584 17.1719 16.3437 17.1719 16.0473C17.1719 15.751 17.4121 15.5107 17.7085 15.5107C18.0049 15.5107 18.2451 15.751 18.2451 16.0473Z" stroke="#090909" stroke-width="2.14648" stroke-linecap="round" stroke-linejoin="round"/>
</g>
</svg>
